<?xml version="1.0" encoding="UTF-8" standalone="no"?>
<svg
   width="1361.0796"
   height="330"
   xml:space="preserve"
   overflow="hidden"
   version="1.1"
   id="svg30"
   sodipodi:docname="Logo.svg"
   inkscape:version="1.3 (0e150ed6c4, 2023-07-21)"
   xmlns:inkscape="http://www.inkscape.org/namespaces/inkscape"
   xmlns:sodipodi="http://sodipodi.sourceforge.net/DTD/sodipodi-0.dtd"
   xmlns="http://www.w3.org/2000/svg"
   xmlns:svg="http://www.w3.org/2000/svg"><sodipodi:namedview
     id="namedview32"
     pagecolor="#ffffff"
     bordercolor="#000000"
     borderopacity="0.25"
     inkscape:showpageshadow="2"
     inkscape:pageopacity="0.0"
     inkscape:pagecheckerboard="0"
     inkscape:deskcolor="#d1d1d1"
     showgrid="false"
     inkscape:zoom="0.76620076"
     inkscape:cx="323.67496"
     inkscape:cy="346.51493"
     inkscape:window-width="3440"
     inkscape:window-height="1369"
     inkscape:window-x="-8"
     inkscape:window-y="-8"
     inkscape:window-maximized="1"
     inkscape:current-layer="g28" /><defs
     id="defs14"><clipPath
       id="clip0"><rect
         x="1298"
         y="825"
         width="1574"
         height="694"
         id="rect2" /></clipPath><clipPath
       id="clip1"><rect
         x="1298"
         y="940"
         width="367"
         height="368"
         id="rect5" /></clipPath><clipPath
       id="clip2"><rect
         x="1298"
         y="940"
         width="367"
         height="368"
         id="rect8" /></clipPath><clipPath
       id="clip3"><rect
         x="1298"
         y="940"
         width="367"
         height="368"
         id="rect11" /></clipPath></defs><g
     clip-path="url(#clip0)"
     transform="translate(-1339.9375,-959.5)"
     id="g28"><g
       clip-path="url(#clip1)"
       id="g22"
       transform="translate(12)"
       style="stroke-width:3;stroke-dasharray:none;stroke:#000000;stroke-opacity:1"><g
         clip-path="url(#clip2)"
         id="g20"
         style="stroke-width:3;stroke-dasharray:none;stroke:#000000;stroke-opacity:1"><g
           clip-path="url(#clip3)"
           id="g18"
           style="display:inline;stroke-width:3;stroke-dasharray:none;stroke:#000000;stroke-opacity:1"><path
             d="m 183,41.9375 v 0 C 105.225,41.9375 41.9375,105.225 41.9375,183 41.9375,260.775 105.225,324.063 183,324.063 260.775,324.063 324.063,260.775 324.063,183 324.063,105.225 260.775,41.9375 183,41.9375 Z M 316.438,179.188 h -61 C 254.294,127.719 231.8,79.6813 195.2,50.325 c 67.1,6.1 118.95,61.381 121.238,128.863 z m -137.25,0 h -61 c 1.143,-51.088 24.018,-98.363 61,-125.813 z m 0,7.625 v 125.812 c -36.982,-27.831 -59.857,-75.106 -61,-125.812 z m 7.625,0 h 61 c -1.144,51.087 -24.019,98.362 -61,125.812 z m 0,-7.625 V 53.375 c 36.981,27.8313 59.856,75.106 61,125.813 z M 170.8,50.325 c -36.6,29.3563 -59.094,77.394 -60.237,128.863 H 49.5625 C 51.85,111.706 103.7,56.425 170.8,50.325 Z M 49.5625,186.813 H 110.563 C 111.706,238.281 134.2,286.319 170.8,315.675 103.7,309.575 51.85,254.294 49.5625,186.813 Z M 195.2,315.675 c 36.6,-29.356 59.094,-77.394 60.238,-128.862 h 61 c -1.907,66.718 -52.613,121.618 -118.569,128.862 -1.144,0 -2.669,0 -2.669,0 z"
             transform="matrix(1,0,0,1.00273,1298,941)"
             id="path16"
             style="stroke-width:2.99591337;stroke-dasharray:none;stroke:#000000;stroke-opacity:1" /></g></g></g><text
       font-family="Walbaum Display,Walbaum Display_MSFontService,sans-serif"
       font-weight="400"
       font-size="330"
       transform="scale(0.93888806,1.0650897)"
       id="text24"
       style="font-style:normal;font-variant:normal;font-weight:normal;font-stretch:normal;font-size:374.227px;font-family:'Baskerville Old Face';-inkscape-font-specification:'Baskerville Old Face, Normal';font-variant-ligatures:normal;font-variant-caps:normal;font-variant-numeric:normal;font-variant-east-asian:normal;stroke-width:1.13402"
       x="1793.7965"
       y="1180.609"><tspan
         style="font-style:normal;font-variant:normal;font-weight:normal;font-stretch:normal;font-size:346.667px;font-family:'Century Schoolbook';-inkscape-font-specification:'Century Schoolbook, Normal';font-variant-ligatures:normal;font-variant-caps:normal;font-variant-numeric:normal;font-variant-east-asian:normal"
         id="tspan1">EOMP</tspan></text><path
       d="m 1664.5,959.5 v 330"
       stroke="#000000"
       stroke-width="20.625"
       stroke-miterlimit="8"
       fill="none"
       fill-rule="evenodd"
       id="path26"
       style="stroke-width:15;stroke-dasharray:none" /></g></svg>
